<svg width="40" height="40" viewBox="0 0 40 40" fill="none" xmlns="http://www.w3.org/2000/svg">
<rect x="10" y="10" width="20" height="20" rx="10" fill="#97A7CB"/>
<path d="M18.9117 21.932C18.7797 21.932 18.6657 21.89 18.5697 21.806C18.4857 21.71 18.4437 21.596 18.4437 21.464V13.85C18.4437 13.718 18.4857 13.61 18.5697 13.526C18.6657 13.442 18.7797 13.4 18.9117 13.4H21.0897C21.2217 13.4 21.3297 13.442 21.4137 13.526C21.5097 13.61 21.5577 13.718 21.5577 13.85V21.464C21.5577 21.596 21.5097 21.71 21.4137 21.806C21.3297 21.89 21.2217 21.932 21.0897 21.932H18.9117ZM18.8397 26C18.7197 26 18.6117 25.958 18.5157 25.874C18.4317 25.778 18.3897 25.67 18.3897 25.55V23.228C18.3897 23.096 18.4317 22.988 18.5157 22.904C18.6117 22.808 18.7197 22.76 18.8397 22.76H21.1617C21.2817 22.76 21.3837 22.808 21.4677 22.904C21.5637 22.988 21.6117 23.096 21.6117 23.228V25.55C21.6117 25.67 21.5697 25.778 21.4857 25.874C21.4017 25.958 21.2937 26 21.1617 26H18.8397Z" fill="white"/>
<rect x="1" y="1" width="38" height="38" rx="11" stroke="#97A7CB" stroke-width="2"/>
</svg>
