<svg width="129" height="24" viewBox="0 0 129 24" fill="none" xmlns="http://www.w3.org/2000/svg">
<path d="M80.7596 20.625C80.614 20.625 80.4926 20.5757 80.3956 20.4771C80.2985 20.3621 80.25 20.2389 80.25 20.1075C80.25 20.0254 80.2581 19.9514 80.2743 19.8857L86.0493 4.04036C86.0978 3.85964 86.1949 3.70357 86.3404 3.57214C86.486 3.44071 86.6882 3.375 86.9471 3.375H90.0529C90.3118 3.375 90.514 3.44071 90.6596 3.57214C90.8051 3.70357 90.9022 3.85964 90.9507 4.04036L96.7257 19.8857C96.7419 19.9514 96.75 20.0254 96.75 20.1075C96.75 20.2389 96.7015 20.3621 96.6044 20.4771C96.5074 20.5757 96.386 20.625 96.2404 20.625H93.7169C93.4743 20.625 93.2963 20.5675 93.1831 20.4525C93.0699 20.3375 92.9971 20.2307 92.9647 20.1321L91.9213 17.3721H85.0787L84.0353 20.1321C84.0029 20.2307 83.9301 20.3375 83.8169 20.4525C83.7037 20.5675 83.5257 20.625 83.2831 20.625H80.7596ZM85.9765 14.1932H90.9993L88.5 7.09607L85.9765 14.1932Z" fill="#908DFF"/>
<path d="M105.375 21.375C103.819 21.375 102.514 21.1417 101.46 20.675C100.422 20.2083 99.6361 19.6 99.1011 18.85C98.5661 18.1 98.2824 17.3 98.25 16.45C98.25 16.3167 98.2986 16.2 98.3959 16.1C98.4932 15.9833 98.6148 15.925 98.7607 15.925H101.363C101.573 15.925 101.735 15.975 101.849 16.075C101.962 16.1583 102.068 16.2667 102.165 16.4C102.279 16.6833 102.457 16.9583 102.7 17.225C102.959 17.4917 103.308 17.7167 103.746 17.9C104.183 18.0667 104.727 18.15 105.375 18.15C106.429 18.15 107.215 17.975 107.734 17.625C108.269 17.275 108.536 16.8 108.536 16.2C108.536 15.7667 108.39 15.4167 108.099 15.15C107.823 14.8833 107.377 14.6417 106.761 14.425C106.161 14.2083 105.359 13.975 104.354 13.725C103.138 13.4583 102.1 13.1167 101.241 12.7C100.398 12.2667 99.7577 11.7167 99.32 11.05C98.8985 10.3667 98.6877 9.525 98.6877 8.525C98.6877 7.525 98.9552 6.64167 99.4902 5.875C100.025 5.09167 100.779 4.48333 101.752 4.05C102.724 3.6 103.884 3.375 105.229 3.375C106.315 3.375 107.272 3.525 108.099 3.825C108.942 4.125 109.639 4.51667 110.19 5C110.757 5.48333 111.187 6 111.479 6.55C111.77 7.1 111.924 7.63333 111.941 8.15C111.941 8.28333 111.892 8.40833 111.795 8.525C111.698 8.625 111.576 8.675 111.43 8.675H108.706C108.544 8.675 108.398 8.64167 108.269 8.575C108.139 8.50833 108.034 8.39167 107.953 8.225C107.855 7.79167 107.564 7.41667 107.077 7.1C106.607 6.76667 105.991 6.6 105.229 6.6C104.435 6.6 103.802 6.75 103.332 7.05C102.878 7.35 102.651 7.80833 102.651 8.425C102.651 8.825 102.765 9.16667 102.992 9.45C103.235 9.71667 103.632 9.95833 104.183 10.175C104.751 10.375 105.497 10.6 106.421 10.85C107.847 11.15 109.006 11.5083 109.898 11.925C110.79 12.3417 111.446 12.8833 111.868 13.55C112.289 14.2 112.5 15.025 112.5 16.025C112.5 17.1417 112.192 18.1 111.576 18.9C110.976 19.7 110.141 20.3167 109.071 20.75C108.017 21.1667 106.785 21.375 105.375 21.375Z" fill="#908DFF"/>
<path d="M33.6217 20.625C33.4394 20.625 33.2901 20.5675 33.1741 20.4525C33.058 20.3375 33 20.1896 33 20.0089V7.125H29.0969C28.9311 7.125 28.7901 7.0675 28.6741 6.9525C28.558 6.8375 28.5 6.69786 28.5 6.53357V3.99107C28.5 3.81036 28.558 3.6625 28.6741 3.5475C28.7901 3.4325 28.9311 3.375 29.0969 3.375H40.6283C40.8106 3.375 40.9599 3.4325 41.0759 3.5475C41.192 3.6625 41.25 3.81036 41.25 3.99107V6.53357C41.25 6.69786 41.192 6.8375 41.0759 6.9525C40.9599 7.0675 40.8106 7.125 40.6283 7.125H36.75V20.0089C36.75 20.1896 36.692 20.3375 36.5759 20.4525C36.4599 20.5675 36.3106 20.625 36.1283 20.625H33.6217Z" fill="#908DFF"/>
<path d="M16.3738 20.625C16.1908 20.625 16.0411 20.5675 15.9247 20.4525C15.8082 20.3375 15.75 20.1896 15.75 20.0089V3.99107C15.75 3.81036 15.8082 3.6625 15.9247 3.5475C16.0411 3.4325 16.1908 3.375 16.3738 3.375H25.6204C25.8033 3.375 25.953 3.4325 26.0695 3.5475C26.1859 3.6625 26.2441 3.81036 26.2441 3.99107V6.53355C26.2441 6.69784 26.1859 6.83748 26.0695 6.95248C25.953 7.06748 25.8033 7.12498 25.6204 7.12498L19.5 7.125V10.125H24.8821C25.0651 10.125 25.2148 10.1825 25.3312 10.2975C25.4476 10.4125 25.5059 10.5604 25.5059 10.7411V13.2836C25.5059 13.4479 25.4476 13.5875 25.3312 13.7025C25.2148 13.8175 25.0651 13.875 24.8821 13.875H19.5V16.875L25.6262 16.875C25.8092 16.875 25.9589 16.9325 26.0753 17.0475C26.1918 17.1625 26.25 17.3103 26.25 17.4911V20.0089C26.25 20.1896 26.1918 20.3375 26.0753 20.4525C25.9589 20.5675 25.8092 20.625 25.6262 20.625H16.3738Z" fill="#908DFF"/>
<path fill-rule="evenodd" clip-rule="evenodd" d="M5.25 4.125C5.25 3.71079 5.58579 3.375 6 3.375H10.0455C11.5297 3.375 12.75 4.52915 12.75 5.9765V15.2803C12.75 17.1493 11.927 18.6542 10.6471 19.6544C9.41467 20.6176 7.85258 21.0469 6.375 21.0469C4.89742 21.0469 3.33533 20.6176 2.10294 19.6544C0.823045 18.6542 0 17.1493 0 15.2803V13.798C0 13.3838 0.335786 13.048 0.75 13.048H3.11364C3.52785 13.048 3.86364 13.3838 3.86364 13.798V15.2803C3.86364 16.0155 4.15139 16.4638 4.53768 16.7657C4.97149 17.1047 5.63099 17.3265 6.375 17.3265C7.11901 17.3265 7.77851 17.1047 8.21231 16.7657C8.59861 16.4638 8.88636 16.0155 8.88636 15.2803V7.0959L5.9999 7.0955C5.58572 7.09544 5.25 6.75967 5.25 6.3455V4.125Z" fill="#908DFF"/>
<path d="M74.25 4.125C74.25 3.71079 74.5858 3.375 75 3.375H77.25C77.6642 3.375 78 3.71079 78 4.125V19.875C78 20.2892 77.6642 20.625 77.25 20.625H75C74.5858 20.625 74.25 20.2892 74.25 19.875V4.125Z" fill="#908DFF"/>
<path d="M43.5 3.375C43.0858 3.375 42.75 3.71079 42.75 4.125L42.75 6.375C42.75 6.78921 43.0858 7.125 43.5 7.125L52.5 7.125C52.9142 7.125 53.25 6.78921 53.25 6.375L53.25 4.125C53.25 3.71079 52.9142 3.375 52.5 3.375L43.5 3.375Z" fill="#FBD345"/>
<path fill-rule="evenodd" clip-rule="evenodd" d="M55.875 3.75C56.7034 3.75 57.375 4.42157 57.375 5.25C57.375 6.07843 56.7034 6.75 55.875 6.75C55.0466 6.75 54.375 6.07843 54.375 5.25C54.375 4.42157 55.0466 3.75 55.875 3.75ZM61.125 5.25C61.125 2.35051 58.7745 0 55.875 0C52.9755 0 50.625 2.35051 50.625 5.25C50.625 8.1495 52.9755 10.5 55.875 10.5C58.7745 10.5 61.125 8.1495 61.125 5.25Z" fill="#FBD345"/>
<path d="M62.25 20.625C62.6642 20.625 63 20.2892 63 19.875L63 17.625C63 17.2108 62.6642 16.875 62.25 16.875L53.25 16.875C52.8358 16.875 52.5 17.2108 52.5 17.625L52.5 19.875C52.5 20.2892 52.8358 20.625 53.25 20.625L62.25 20.625Z" fill="#FBD345"/>
<path fill-rule="evenodd" clip-rule="evenodd" d="M49.875 20.25C49.0466 20.25 48.375 19.5784 48.375 18.75C48.375 17.9216 49.0466 17.25 49.875 17.25C50.7034 17.25 51.375 17.9216 51.375 18.75C51.375 19.5784 50.7034 20.25 49.875 20.25ZM44.625 18.75C44.625 21.6495 46.9755 24 49.875 24C52.7745 24 55.125 21.6495 55.125 18.75C55.125 15.8505 52.7745 13.5 49.875 13.5C46.9755 13.5 44.625 15.8505 44.625 18.75Z" fill="#FBD345"/>
<path d="M124.5 4.125C124.5 3.71079 124.836 3.375 125.25 3.375H127.5C127.914 3.375 128.25 3.71079 128.25 4.125V19.875C128.25 20.2892 127.914 20.625 127.5 20.625H125.25C124.836 20.625 124.5 20.2892 124.5 19.875V4.125Z" fill="#908DFF"/>
<path d="M64.5 4.125C64.5 3.71079 64.8358 3.375 65.25 3.375H67.5C67.9142 3.375 68.25 3.71079 68.25 4.125V19.875C68.25 20.2892 67.9142 20.625 67.5 20.625H65.25C64.8358 20.625 64.5 20.2892 64.5 19.875V4.125Z" fill="#908DFF"/>
<path d="M114.75 4.125C114.75 3.71079 115.086 3.375 115.5 3.375H117.75C118.164 3.375 118.5 3.71079 118.5 4.125V19.875C118.5 20.2892 118.164 20.625 117.75 20.625H115.5C115.086 20.625 114.75 20.2892 114.75 19.875V4.125Z" fill="#908DFF"/>
<path d="M74.25 10.125C74.6642 10.125 75 10.4608 75 10.875L75 13.125C75 13.5392 74.6642 13.875 74.25 13.875L68.25 13.875C67.8358 13.875 67.5 13.5392 67.5 13.125L67.5 10.875C67.5 10.4608 67.8358 10.125 68.25 10.125L74.25 10.125Z" fill="#908DFF"/>
<path d="M124.5 10.125C124.914 10.125 125.25 10.4608 125.25 10.875L125.25 13.125C125.25 13.5392 124.914 13.875 124.5 13.875L117.75 13.875C117.336 13.875 117 13.5392 117 13.125L117 10.875C117 10.4608 117.336 10.125 117.75 10.125L124.5 10.125Z" fill="#908DFF"/>
</svg>
